<svg width="205" height="56" viewBox="0 0 205 56" fill="none" xmlns="http://www.w3.org/2000/svg">
<path d="M203 0H2C0.89543 0 0 0.89543 0 2V54C0 55.1046 0.89543 56 2 56H203C204.105 56 205 55.1046 205 54V2C205 0.89543 204.105 0 203 0Z" fill="url(#paint0_linear_43_2)"/>
<path d="M36 18H26C23.2386 18 21 20.2386 21 23V33C21 35.7614 23.2386 38 26 38H36C38.7614 38 41 35.7614 41 33V23C41 20.2386 38.7614 18 36 18Z" stroke="white" stroke-width="2" stroke-linecap="round" stroke-linejoin="round"/>
<path d="M35.0001 27.37C35.1235 28.2022 34.9814 29.0522 34.5939 29.799C34.2064 30.5458 33.5933 31.1514 32.8417 31.5297C32.0902 31.9079 31.2386 32.0396 30.4079 31.9059C29.5772 31.7723 28.8099 31.3801 28.215 30.7852C27.62 30.1902 27.2278 29.4229 27.0942 28.5922C26.9605 27.7615 27.0922 26.9099 27.4704 26.1584C27.8487 25.4069 28.4543 24.7937 29.2011 24.4062C29.9479 24.0187 30.7979 23.8766 31.6301 24C32.479 24.1259 33.265 24.5215 33.8718 25.1283C34.4786 25.7351 34.8742 26.5211 35.0001 27.37Z" stroke="white" stroke-width="2" stroke-linecap="round" stroke-linejoin="round"/>
<path d="M36.5 22.5H36.51" stroke="white" stroke-width="2" stroke-linecap="round" stroke-linejoin="round"/>
<path d="M55.9022 33.58C55.6122 33.58 55.3222 33.545 55.0322 33.475C54.7422 33.405 54.5022 33.28 54.3122 33.1C53.8722 33.41 53.3172 33.565 52.6472 33.565C52.1472 33.565 51.6872 33.49 51.2672 33.34C50.8572 33.18 50.5022 32.945 50.2022 32.635C49.9122 32.325 49.6822 31.945 49.5122 31.495C49.3522 31.035 49.2722 30.505 49.2722 29.905C49.2722 29.395 49.3522 28.92 49.5122 28.48C49.6822 28.04 49.9272 27.66 50.2472 27.34C50.5672 27.01 50.9572 26.75 51.4172 26.56C51.8872 26.37 52.4172 26.275 53.0072 26.275C53.5972 26.275 54.1172 26.33 54.5672 26.44C55.0272 26.54 55.4072 26.645 55.7072 26.755V31.465C55.7072 31.695 55.7522 31.85 55.8422 31.93C55.9422 32.01 56.0822 32.05 56.2622 32.05C56.4222 32.05 56.5772 32.005 56.7272 31.915C56.8872 31.825 57.0222 31.665 57.1322 31.435C57.2422 31.195 57.3322 30.875 57.4022 30.475C57.4722 30.065 57.5072 29.55 57.5072 28.93C57.5072 28.31 57.3972 27.745 57.1772 27.235C56.9672 26.715 56.6572 26.275 56.2472 25.915C55.8472 25.545 55.3522 25.26 54.7622 25.06C54.1822 24.85 53.5222 24.745 52.7822 24.745C52.0722 24.745 51.4172 24.865 50.8172 25.105C50.2272 25.345 49.7122 25.69 49.2722 26.14C48.8422 26.58 48.5022 27.12 48.2522 27.76C48.0122 28.4 47.8922 29.12 47.8922 29.92C47.8922 30.75 48.0122 31.48 48.2522 32.11C48.4922 32.73 48.8322 33.25 49.2722 33.67C49.7222 34.09 50.2622 34.405 50.8922 34.615C51.5322 34.835 52.2522 34.945 53.0522 34.945C53.5522 34.945 54.0222 34.91 54.4622 34.84C54.9122 34.78 55.2872 34.72 55.5872 34.66L55.8122 36.07C55.5622 36.15 55.1822 36.235 54.6722 36.325C54.1622 36.415 53.6222 36.46 53.0522 36.46C52.0922 36.46 51.1922 36.335 50.3522 36.085C49.5122 35.835 48.7772 35.445 48.1472 34.915C47.5272 34.385 47.0372 33.71 46.6772 32.89C46.3172 32.06 46.1372 31.07 46.1372 29.92C46.1372 28.81 46.3272 27.84 46.7072 27.01C47.0872 26.17 47.5872 25.47 48.2072 24.91C48.8272 24.35 49.5322 23.93 50.3222 23.65C51.1222 23.37 51.9422 23.23 52.7822 23.23C53.7022 23.23 54.5572 23.36 55.3472 23.62C56.1372 23.87 56.8172 24.24 57.3872 24.73C57.9672 25.22 58.4222 25.83 58.7522 26.56C59.0822 27.28 59.2472 28.11 59.2472 29.05C59.2472 29.78 59.1672 30.43 59.0072 31C58.8572 31.56 58.6322 32.03 58.3322 32.41C58.0422 32.79 57.6922 33.08 57.2822 33.28C56.8722 33.48 56.4122 33.58 55.9022 33.58ZM53.7872 31.795C53.7672 31.715 53.7522 31.6 53.7422 31.45C53.7322 31.29 53.7272 31.14 53.7272 31V27.94C53.5272 27.9 53.3172 27.88 53.0972 27.88C52.7672 27.88 52.4872 27.935 52.2572 28.045C52.0272 28.145 51.8422 28.285 51.7022 28.465C51.5622 28.645 51.4572 28.86 51.3872 29.11C51.3272 29.35 51.2972 29.615 51.2972 29.905C51.2972 30.195 51.3222 30.465 51.3722 30.715C51.4222 30.955 51.5072 31.165 51.6272 31.345C51.7572 31.525 51.9272 31.67 52.1372 31.78C52.3472 31.88 52.6072 31.93 52.9172 31.93C53.0972 31.93 53.2672 31.92 53.4272 31.9C53.5872 31.87 53.7072 31.835 53.7872 31.795ZM68.1367 31.99V34H61.1917V23.605H63.5317V31.99H68.1367ZM73.5624 34.21C72.8324 34.21 72.2024 34.11 71.6724 33.91C71.1424 33.7 70.7024 33.415 70.3524 33.055C70.0124 32.685 69.7574 32.25 69.5874 31.75C69.4274 31.24 69.3474 30.68 69.3474 30.07V23.605H71.6874V29.875C71.6874 30.295 71.7324 30.655 71.8224 30.955C71.9224 31.245 72.0524 31.485 72.2124 31.675C72.3824 31.855 72.5824 31.985 72.8124 32.065C73.0524 32.145 73.3124 32.185 73.5924 32.185C74.1624 32.185 74.6224 32.01 74.9724 31.66C75.3324 31.31 75.5124 30.715 75.5124 29.875V23.605H77.8524V30.07C77.8524 30.68 77.7674 31.24 77.5974 31.75C77.4274 32.26 77.1674 32.7 76.8174 33.07C76.4674 33.43 76.0224 33.71 75.4824 33.91C74.9424 34.11 74.3024 34.21 73.5624 34.21ZM84.8428 34.21C83.1528 34.21 81.8628 33.74 80.9728 32.8C80.0928 31.86 79.6528 30.525 79.6528 28.795C79.6528 27.935 79.7878 27.17 80.0578 26.5C80.3278 25.82 80.6978 25.25 81.1678 24.79C81.6378 24.32 82.1978 23.965 82.8478 23.725C83.4978 23.485 84.2028 23.365 84.9628 23.365C85.4028 23.365 85.8028 23.4 86.1628 23.47C86.5228 23.53 86.8378 23.605 87.1078 23.695C87.3778 23.775 87.6028 23.86 87.7828 23.95C87.9628 24.04 88.0928 24.11 88.1728 24.16L87.4978 26.05C87.1778 25.88 86.8028 25.735 86.3728 25.615C85.9528 25.495 85.4728 25.435 84.9328 25.435C84.5728 25.435 84.2178 25.495 83.8678 25.615C83.5278 25.735 83.2228 25.93 82.9528 26.2C82.6928 26.46 82.4828 26.8 82.3228 27.22C82.1628 27.64 82.0828 28.15 82.0828 28.75C82.0828 29.23 82.1328 29.68 82.2328 30.1C82.3428 30.51 82.5128 30.865 82.7428 31.165C82.9828 31.465 83.2928 31.705 83.6728 31.885C84.0528 32.055 84.5128 32.14 85.0528 32.14C85.3928 32.14 85.6978 32.12 85.9678 32.08C86.2378 32.04 86.4778 31.995 86.6878 31.945C86.8978 31.885 87.0828 31.82 87.2428 31.75C87.4028 31.68 87.5478 31.615 87.6778 31.555L88.3228 33.43C87.9928 33.63 87.5278 33.81 86.9278 33.97C86.3278 34.13 85.6328 34.21 84.8428 34.21ZM97.2142 34C97.1042 33.64 96.9792 33.27 96.8392 32.89C96.7092 32.51 96.5792 32.13 96.4492 31.75H92.3992C92.2692 32.13 92.1342 32.51 91.9942 32.89C91.8642 33.27 91.7442 33.64 91.6342 34H89.2042C89.5942 32.88 89.9642 31.845 90.3142 30.895C90.6642 29.945 91.0042 29.05 91.3342 28.21C91.6742 27.37 92.0042 26.575 92.3242 25.825C92.6542 25.065 92.9942 24.325 93.3442 23.605H95.5792C95.9192 24.325 96.2542 25.065 96.5842 25.825C96.9142 26.575 97.2442 27.37 97.5742 28.21C97.9142 29.05 98.2592 29.945 98.6092 30.895C98.9592 31.845 99.3292 32.88 99.7192 34H97.2142ZM94.4092 25.96C94.3592 26.11 94.2842 26.315 94.1842 26.575C94.0842 26.835 93.9692 27.135 93.8392 27.475C93.7092 27.815 93.5642 28.19 93.4042 28.6C93.2542 29.01 93.0992 29.44 92.9392 29.89H95.8942C95.7342 29.44 95.5792 29.01 95.4292 28.6C95.2792 28.19 95.1342 27.815 94.9942 27.475C94.8642 27.135 94.7492 26.835 94.6492 26.575C94.5492 26.315 94.4692 26.11 94.4092 25.96ZM104.178 32.215C104.508 32.215 104.778 32.19 104.988 32.14C105.208 32.08 105.383 32.005 105.513 31.915C105.643 31.815 105.733 31.7 105.783 31.57C105.833 31.44 105.858 31.295 105.858 31.135C105.858 30.795 105.698 30.515 105.378 30.295C105.058 30.065 104.508 29.82 103.728 29.56C103.388 29.44 103.048 29.305 102.708 29.155C102.368 28.995 102.063 28.8 101.793 28.57C101.523 28.33 101.303 28.045 101.133 27.715C100.963 27.375 100.878 26.965 100.878 26.485C100.878 26.005 100.968 25.575 101.148 25.195C101.328 24.805 101.583 24.475 101.913 24.205C102.243 23.935 102.643 23.73 103.113 23.59C103.583 23.44 104.113 23.365 104.703 23.365C105.403 23.365 106.008 23.44 106.518 23.59C107.028 23.74 107.448 23.905 107.778 24.085L107.103 25.93C106.813 25.78 106.488 25.65 106.128 25.54C105.778 25.42 105.353 25.36 104.853 25.36C104.293 25.36 103.888 25.44 103.638 25.6C103.398 25.75 103.278 25.985 103.278 26.305C103.278 26.495 103.323 26.655 103.413 26.785C103.503 26.915 103.628 27.035 103.788 27.145C103.958 27.245 104.148 27.34 104.358 27.43C104.578 27.51 104.818 27.595 105.078 27.685C105.618 27.885 106.088 28.085 106.488 28.285C106.888 28.475 107.218 28.7 107.478 28.96C107.748 29.22 107.948 29.525 108.078 29.875C108.208 30.225 108.273 30.65 108.273 31.15C108.273 32.12 107.933 32.875 107.253 33.415C106.573 33.945 105.548 34.21 104.178 34.21C103.718 34.21 103.303 34.18 102.933 34.12C102.563 34.07 102.233 34.005 101.943 33.925C101.663 33.845 101.418 33.76 101.208 33.67C101.008 33.58 100.838 33.495 100.698 33.415L101.358 31.555C101.668 31.725 102.048 31.88 102.498 32.02C102.958 32.15 103.518 32.215 104.178 32.215ZM112.26 32.815C112.26 33.265 112.115 33.61 111.825 33.85C111.545 34.08 111.225 34.195 110.865 34.195C110.505 34.195 110.18 34.08 109.89 33.85C109.61 33.61 109.47 33.265 109.47 32.815C109.47 32.365 109.61 32.025 109.89 31.795C110.18 31.555 110.505 31.435 110.865 31.435C111.225 31.435 111.545 31.555 111.825 31.795C112.115 32.025 112.26 32.365 112.26 32.815ZM116.937 32.215C117.267 32.215 117.537 32.19 117.747 32.14C117.967 32.08 118.142 32.005 118.272 31.915C118.402 31.815 118.492 31.7 118.542 31.57C118.592 31.44 118.617 31.295 118.617 31.135C118.617 30.795 118.457 30.515 118.137 30.295C117.817 30.065 117.267 29.82 116.487 29.56C116.147 29.44 115.807 29.305 115.467 29.155C115.127 28.995 114.822 28.8 114.552 28.57C114.282 28.33 114.062 28.045 113.892 27.715C113.722 27.375 113.637 26.965 113.637 26.485C113.637 26.005 113.727 25.575 113.907 25.195C114.087 24.805 114.342 24.475 114.672 24.205C115.002 23.935 115.402 23.73 115.872 23.59C116.342 23.44 116.872 23.365 117.462 23.365C118.162 23.365 118.767 23.44 119.277 23.59C119.787 23.74 120.207 23.905 120.537 24.085L119.862 25.93C119.572 25.78 119.247 25.65 118.887 25.54C118.537 25.42 118.112 25.36 117.612 25.36C117.052 25.36 116.647 25.44 116.397 25.6C116.157 25.75 116.037 25.985 116.037 26.305C116.037 26.495 116.082 26.655 116.172 26.785C116.262 26.915 116.387 27.035 116.547 27.145C116.717 27.245 116.907 27.34 117.117 27.43C117.337 27.51 117.577 27.595 117.837 27.685C118.377 27.885 118.847 28.085 119.247 28.285C119.647 28.475 119.977 28.7 120.237 28.96C120.507 29.22 120.707 29.525 120.837 29.875C120.967 30.225 121.032 30.65 121.032 31.15C121.032 32.12 120.692 32.875 120.012 33.415C119.332 33.945 118.307 34.21 116.937 34.21C116.477 34.21 116.062 34.18 115.692 34.12C115.322 34.07 114.992 34.005 114.702 33.925C114.422 33.845 114.177 33.76 113.967 33.67C113.767 33.58 113.597 33.495 113.457 33.415L114.117 31.555C114.427 31.725 114.807 31.88 115.257 32.02C115.717 32.15 116.277 32.215 116.937 32.215ZM127.572 34.21C125.882 34.21 124.592 33.74 123.702 32.8C122.822 31.86 122.382 30.525 122.382 28.795C122.382 27.935 122.517 27.17 122.787 26.5C123.057 25.82 123.427 25.25 123.897 24.79C124.367 24.32 124.927 23.965 125.577 23.725C126.227 23.485 126.932 23.365 127.692 23.365C128.132 23.365 128.532 23.4 128.892 23.47C129.252 23.53 129.567 23.605 129.837 23.695C130.107 23.775 130.332 23.86 130.512 23.95C130.692 24.04 130.822 24.11 130.902 24.16L130.227 26.05C129.907 25.88 129.532 25.735 129.102 25.615C128.682 25.495 128.202 25.435 127.662 25.435C127.302 25.435 126.947 25.495 126.597 25.615C126.257 25.735 125.952 25.93 125.682 26.2C125.422 26.46 125.212 26.8 125.052 27.22C124.892 27.64 124.812 28.15 124.812 28.75C124.812 29.23 124.862 29.68 124.962 30.1C125.072 30.51 125.242 30.865 125.472 31.165C125.712 31.465 126.022 31.705 126.402 31.885C126.782 32.055 127.242 32.14 127.782 32.14C128.122 32.14 128.427 32.12 128.697 32.08C128.967 32.04 129.207 31.995 129.417 31.945C129.627 31.885 129.812 31.82 129.972 31.75C130.132 31.68 130.277 31.615 130.407 31.555L131.052 33.43C130.722 33.63 130.257 33.81 129.657 33.97C129.057 34.13 128.362 34.21 127.572 34.21ZM139.944 34C139.834 33.64 139.709 33.27 139.569 32.89C139.439 32.51 139.309 32.13 139.179 31.75H135.129C134.999 32.13 134.864 32.51 134.724 32.89C134.594 33.27 134.474 33.64 134.364 34H131.934C132.324 32.88 132.694 31.845 133.044 30.895C133.394 29.945 133.734 29.05 134.064 28.21C134.404 27.37 134.734 26.575 135.054 25.825C135.384 25.065 135.724 24.325 136.074 23.605H138.309C138.649 24.325 138.984 25.065 139.314 25.825C139.644 26.575 139.974 27.37 140.304 28.21C140.644 29.05 140.989 29.945 141.339 30.895C141.689 31.845 142.059 32.88 142.449 34H139.944ZM137.139 25.96C137.089 26.11 137.014 26.315 136.914 26.575C136.814 26.835 136.699 27.135 136.569 27.475C136.439 27.815 136.294 28.19 136.134 28.6C135.984 29.01 135.829 29.44 135.669 29.89H138.624C138.464 29.44 138.309 29.01 138.159 28.6C138.009 28.19 137.864 27.815 137.724 27.475C137.594 27.135 137.479 26.835 137.379 26.575C137.279 26.315 137.199 26.11 137.139 25.96ZM150.274 23.605V25.6H147.139V34H144.799V25.6H141.664V23.605H150.274ZM153.391 28.795C153.391 29.305 153.451 29.765 153.571 30.175C153.701 30.585 153.881 30.94 154.111 31.24C154.351 31.53 154.641 31.755 154.981 31.915C155.321 32.075 155.711 32.155 156.151 32.155C156.581 32.155 156.966 32.075 157.306 31.915C157.656 31.755 157.946 31.53 158.176 31.24C158.416 30.94 158.596 30.585 158.716 30.175C158.846 29.765 158.911 29.305 158.911 28.795C158.911 28.285 158.846 27.825 158.716 27.415C158.596 26.995 158.416 26.64 158.176 26.35C157.946 26.05 157.656 25.82 157.306 25.66C156.966 25.5 156.581 25.42 156.151 25.42C155.711 25.42 155.321 25.505 154.981 25.675C154.641 25.835 154.351 26.065 154.111 26.365C153.881 26.655 153.701 27.01 153.571 27.43C153.451 27.84 153.391 28.295 153.391 28.795ZM161.326 28.795C161.326 29.685 161.191 30.47 160.921 31.15C160.661 31.82 160.301 32.385 159.841 32.845C159.381 33.295 158.831 33.635 158.191 33.865C157.561 34.095 156.881 34.21 156.151 34.21C155.441 34.21 154.771 34.095 154.141 33.865C153.511 33.635 152.961 33.295 152.491 32.845C152.021 32.385 151.651 31.82 151.381 31.15C151.111 30.47 150.976 29.685 150.976 28.795C150.976 27.905 151.116 27.125 151.396 26.455C151.676 25.775 152.051 25.205 152.521 24.745C153.001 24.285 153.551 23.94 154.171 23.71C154.801 23.48 155.461 23.365 156.151 23.365C156.861 23.365 157.531 23.48 158.161 23.71C158.791 23.94 159.341 24.285 159.811 24.745C160.281 25.205 160.651 25.775 160.921 26.455C161.191 27.125 161.326 27.905 161.326 28.795ZM170.222 31.99V34H163.277V23.605H165.617V31.99H170.222ZM171.729 23.605H174.069V34H171.729V23.605ZM183.45 34C182.78 32.81 182.055 31.635 181.275 30.475C180.495 29.315 179.665 28.22 178.785 27.19V34H176.475V23.605H178.38C178.71 23.935 179.075 24.34 179.475 24.82C179.875 25.3 180.28 25.815 180.69 26.365C181.11 26.905 181.525 27.47 181.935 28.06C182.345 28.64 182.73 29.2 183.09 29.74V23.605H185.415V34H183.45Z" fill="white"/>
<defs>
<linearGradient id="paint0_linear_43_2" x1="203.719" y1="8.40395e-06" x2="13.4705" y2="85.851" gradientUnits="userSpaceOnUse">
<stop stop-color="#CD3AA0"/>
<stop offset="0.515625" stop-color="#FE5340"/>
<stop offset="1" stop-color="#FFD353"/>
</linearGradient>
</defs>
</svg>
